<?xml version="1.0" encoding="UTF-8"?>
<svg xmlns="http://www.w3.org/2000/svg" version="1.1" viewBox="0 0 691.1 695.5">
  <defs>
    <style>
      .cls-1 {
        opacity: .4;
      }

      .cls-1, .cls-2 {
        fill: #4285f4;
      }
    </style>
  </defs>
  <!-- Generator: Adobe Illustrator 28.6.0, SVG Export Plug-In . SVG Version: 1.2.0 Build 709)  -->
  <g>
    <g id="Layer_2">
      <path class="cls-1" d="M351.5,378.3c-5.3-23.4-23.5-41.7-46.9-47.1l-218.4-50.3c-.8,5.4-.6,11,.9,16.5l49.2,188.7,23.7,28.1,2.7,9.2c5.1,17.3,18.8,30.9,36.1,35.9l160.4,46.3,42.9-3.7-50.7-223.5Z"/>
      <path class="cls-2" d="M680.3,370.6l-52.7-202.1c-11.7-45-46.8-81.1-91.5-94.1l-194.6-56.5c-46.1-13.4-95.9-.8-130.1,32.8L51.8,207.5c-33.8,33.2-47.4,82.4-35.5,128.3l38,145.8h.4c0,.1,14.5,56.3,14.5,56.3,6.1,23.6,18.8,44.6,35.9,60.9,7.3,6.9,19.3,4.6,23.3-4.6,9.7-22.3,23.4-41.7,33.7-54.5,2.5-3.1,3.3-7.1,2.2-10.9-2.2-7.7-4.2-14.7-4.2-14.7l-52.7-202.1c-1.3-5.1-1.6-10.4-.8-15.5,1.2-8.2,5.1-16,11.2-22l159.5-156.7c5.2-5.1,11.7-8.6,18.6-10.2,6.3-1.4,13-1.3,19.4.6l194.6,56.5c8.3,2.4,15.4,7.5,20.4,14.2,2.9,3.9,5.1,8.4,6.4,13.3l52.7,202.1c3.5,13.4-.5,27.8-10.4,37.5l-159.5,156.7c-.4.4-1.8,1.6-3.7,3.2-9,7.5-21.1,10.1-32.3,7-16.2-4.5-89.3-25.9-89.3-25.9-5.8-1.7-10.6-5.8-13-11.4-.2-.4-.3-.7-.4-1.1-10-25.3-14.4-97.4,155.3-225.7l33.6,93.9,38.6-41.6-51.5-166.3-152.4-42.6-44.5,41.6,119.2,37.9c-161.7,122.2-226.5,238.9-187.3,337.9,19.2,48.5,46.7,62.8,104.9,78l64.7,17.6c43.2,11.7,89.3-.4,121.1-32l41.5-41.2h0s95.6-93.9,95.6-93.9l25.6-25.1c33.8-33.2,47.4-82.4,35.5-128.3Z"/>
    </g>
  </g>
</svg>